<svg viewBox="0 0 20 20" fill="none">
                <path data-morph="start"
                    d="M2 14.87 C2 15.91 2 16.96 2 18 3.04 18 4.08 18 5.12 18 8.19 14.92 11.26 11.85 14.34 8.78 13.3 7.74 12.25 6.7 11.21 5.65 8.14 8.73 5.07 11.8 2 14.87 M16.75 6.36 C16.83 6.29 16.89 6.2 16.93 6.09 16.98 5.99 17 5.89 17 5.78 17 5.67 16.98 5.56 16.93 5.46 16.89 5.36 16.83 5.27 16.75 5.19 16.1 4.54 15.45 3.89 14.8 3.24 14.73 3.16 14.63 3.1 14.53 3.06 14.43 3.02 14.32 3 14.22 3 14.11 3 14 3.02 13.9 3.06 13.8 3.1 13.71 3.16 13.63 3.24 13.12 3.75 12.61 4.26 12.1 4.76 13.14 5.81 14.19 6.85 15.23 7.89 15.74 7.38 16.24 6.87 16.75 6.36 "
                    fill="currentcolor"
                    data-original="M2 14.8767V18.0017H5.125L14.342 8.7847L11.217 5.6597L2 14.8767ZM16.758 6.3687C16.8353 6.29161 16.8965 6.20003 16.9384 6.09922C16.9802 5.99841 17.0017 5.89034 17.0017 5.7812C17.0017 5.67206 16.9802 5.56399 16.9384 5.46318C16.8965 5.36237 16.8353 5.2708 16.758 5.1937L14.808 3.2437C14.7309 3.16645 14.6393 3.10516 14.5385 3.06334C14.4377 3.02152 14.3296 3 14.2205 3C14.1114 3 14.0033 3.02152 13.9025 3.06334C13.8017 3.10516 13.7101 3.16645 13.633 3.2437L12.108 4.7687L15.233 7.8937L16.758 6.3687Z">
</path>
</svg>
